<svg width="25" height="20" viewBox="0 0 25 20" fill="none" xmlns="http://www.w3.org/2000/svg">
<path d="M12.4391 4.78061C13.7514 4.78061 14.8154 3.71043 14.8154 2.39031C14.8154 1.07018 13.7514 0 12.4391 0C11.1267 0 10.0627 1.07018 10.0627 2.39031C10.0627 3.71043 11.1267 4.78061 12.4391 4.78061Z" fill="white"/>
<path d="M13.8908 5.14827H10.9874C10.2163 5.11655 9.46379 5.38217 8.89508 5.88678C8.32638 6.39138 7.98803 7.09371 7.95438 7.83945V11.4751C7.95814 11.9039 8.0988 12.3212 8.35711 12.6697C8.61542 13.0183 8.97876 13.2812 9.39744 13.4224V18.2699C9.38043 18.701 9.53639 19.1217 9.83272 19.4441C10.129 19.7666 10.5428 19.9657 10.9874 19.9999H13.8908C14.3354 19.9657 14.7492 19.7666 15.0455 19.4441C15.3418 19.1217 15.4978 18.701 15.4808 18.2699V13.4224C15.8967 13.2822 16.2581 13.0218 16.5162 12.6766C16.7743 12.3313 16.9166 11.9177 16.9239 11.4918V7.83945C16.8902 7.09371 16.5519 6.39138 15.9831 5.88678C15.4144 5.38217 14.6619 5.11655 13.8908 5.14827ZM3.798 5.44914C4.08539 5.45914 4.36932 5.38585 4.61335 5.23869C4.85738 5.09152 5.05039 4.87719 5.1676 4.62319C5.28482 4.3692 5.3209 4.08712 5.27121 3.81316C5.22152 3.53919 5.08834 3.28583 4.88874 3.08559C4.68914 2.88534 4.43224 2.74734 4.15099 2.6893C3.86974 2.63125 3.57698 2.65581 3.31026 2.75981C3.04354 2.86382 2.81503 3.04253 2.65405 3.27302C2.49307 3.50351 2.40696 3.77526 2.40678 4.05341C2.40334 4.23341 2.43661 4.41231 2.50467 4.57988C2.57273 4.74745 2.67426 4.90041 2.80345 5.03002C2.93264 5.15963 3.08697 5.26336 3.25762 5.33527C3.42826 5.40719 3.61189 5.44588 3.798 5.44914ZM4.83493 6.11776H2.76107C2.15099 6.09042 1.55444 6.29728 1.10129 6.6933C0.648142 7.08932 0.375081 7.64245 0.341553 8.23226V10.7396C0.346585 11.1063 0.47621 11.4613 0.710443 11.7498C0.944677 12.0383 1.27051 12.2442 1.63772 12.3359V15.5202C1.6137 15.8794 1.73581 16.2334 1.97799 16.5067C2.22017 16.7799 2.56323 16.9508 2.93389 16.9828H4.73988C4.92733 16.9691 5.11012 16.9196 5.27773 16.8373C5.44535 16.755 5.59449 16.6415 5.71656 16.5032C5.83863 16.3649 5.93123 16.2047 5.98903 16.0317C6.04682 15.8587 6.06868 15.6763 6.05333 15.4951V12.2857C6.39864 12.1788 6.70044 11.9695 6.916 11.6876C7.13155 11.4056 7.24996 11.0652 7.25444 10.7145V8.20719C7.21438 7.62184 6.93848 7.07506 6.48606 6.68435C6.03363 6.29365 5.44078 6.09021 4.83493 6.11776ZM21.0802 5.44914C21.3676 5.45914 21.6516 5.38585 21.8956 5.23869C22.1396 5.09152 22.3326 4.87719 22.4498 4.62319C22.567 4.3692 22.6031 4.08712 22.5534 3.81316C22.5038 3.53919 22.3706 3.28583 22.171 3.08559C21.9714 2.88534 21.7145 2.74734 21.4332 2.6893C21.152 2.63125 20.8592 2.65581 20.5925 2.75981C20.3258 2.86382 20.0973 3.04253 19.9363 3.27302C19.7753 3.50351 19.6892 3.77526 19.689 4.05341C19.6856 4.23341 19.7188 4.41231 19.7869 4.57988C19.855 4.74745 19.9565 4.90041 20.0857 5.03002C20.2149 5.15963 20.3692 5.26336 20.5398 5.33527C20.7105 5.40719 20.8941 5.44588 21.0802 5.44914ZM22.1172 6.11776H20.0433C19.4332 6.09042 18.8367 6.29728 18.3835 6.6933C17.9304 7.08932 17.6573 7.64245 17.6238 8.23226V10.7396C17.6288 11.1063 17.7584 11.4613 17.9927 11.7498C18.2269 12.0383 18.5527 12.2442 18.92 12.3359V15.5202C18.8959 15.8794 19.018 16.2334 19.2602 16.5067C19.5024 16.7799 19.8455 16.9508 20.2161 16.9828H22.0048C22.1923 16.9691 22.3751 16.9196 22.5427 16.8373C22.7103 16.755 22.8594 16.6415 22.9815 16.5032C23.1036 16.3649 23.1962 16.2047 23.254 16.0317C23.3118 15.8587 23.3336 15.6763 23.3183 15.4951V12.2857C23.6668 12.1817 23.9724 11.9737 24.1912 11.6915C24.4101 11.4092 24.531 11.0673 24.5367 10.7145V8.20719C24.4966 7.62184 24.2207 7.07506 23.7683 6.68435C23.3159 6.29365 22.723 6.09021 22.1172 6.11776Z" fill="white"/>
</svg>
