<svg width="30" height="20" viewBox="0 0 30 20" fill="none" xmlns="http://www.w3.org/2000/svg">
<path d="M2.83531 11.8047V14.0273C2.83609 14.1814 2.89195 14.3318 2.99585 14.4597C3.09976 14.5875 3.24707 14.6872 3.41928 14.746C3.59149 14.8049 3.78091 14.8204 3.96372 14.7905C4.14654 14.7606 4.31459 14.6867 4.44675 14.5781L7.75467 11.8438H14.6493C15.276 11.8438 15.877 11.638 16.3201 11.2717C16.7632 10.9054 17.0121 10.4086 17.0121 9.89062V2.07812C17.0121 1.56012 16.7632 1.06334 16.3201 0.697057C15.877 0.330775 15.276 0.125 14.6493 0.125H3.30787C2.68122 0.125 2.08023 0.330775 1.63712 0.697057C1.19401 1.06334 0.945068 1.56012 0.945068 2.07812V9.89062C0.945756 10.3407 1.13414 10.7768 1.47846 11.1255C1.82278 11.4741 2.30199 11.714 2.83531 11.8047ZM5.67068 4.22656C5.67068 3.70856 5.91962 3.21178 6.36273 2.84549C6.80584 2.47921 7.40683 2.27344 8.03348 2.27344H9.45117C10.0778 2.27344 10.6788 2.47921 11.1219 2.84549C11.565 3.21178 11.814 3.70856 11.814 4.22656V7.71484L12.5323 8.40625C12.6952 8.56372 12.7758 8.76825 12.7563 8.97483C12.7368 9.18141 12.6188 9.37313 12.4283 9.50781C12.2378 9.64249 11.9904 9.7091 11.7405 9.69298C11.4905 9.67687 11.2586 9.57935 11.0957 9.42188L10.9256 9.25781C10.509 9.53866 9.98868 9.69306 9.45117 9.69531H8.03348C7.40683 9.69531 6.80584 9.48954 6.36273 9.12326C5.91962 8.75697 5.67068 8.26019 5.67068 7.74219V4.22656Z" fill="white"/>
<path d="M26.936 4.50391H18.1937C18.131 4.50391 18.0709 4.52448 18.0266 4.56111C17.9823 4.59774 17.9574 4.64742 17.9574 4.69922V9.89062C17.9574 10.6158 17.6089 11.3113 16.9885 11.8241C16.3682 12.3369 15.5268 12.625 14.6494 12.625H13.468C13.4054 12.625 13.3453 12.6456 13.301 12.6822C13.2567 12.7188 13.2318 12.7685 13.2318 12.8203V14.2695C13.2328 14.7873 13.482 15.2836 13.9249 15.6497C14.3678 16.0158 14.9682 16.2218 15.5946 16.2227H22.4892L25.7972 18.957C25.9296 19.0659 26.0981 19.1398 26.2813 19.1696C26.4646 19.1993 26.6544 19.1835 26.8268 19.1242C26.9992 19.0648 27.1465 18.9646 27.25 18.8361C27.3536 18.7077 27.4087 18.5567 27.4086 18.4023V16.1836C27.9416 16.0924 28.4204 15.8524 28.7646 15.5038C29.1088 15.1553 29.2974 14.7195 29.2988 14.2695V6.45703C29.2988 5.93903 29.0499 5.44225 28.6068 5.07596C28.1637 4.70968 27.5627 4.50391 26.936 4.50391ZM24.5732 13.2109C24.5732 13.4181 24.4737 13.6169 24.2964 13.7634C24.1192 13.9099 23.8788 13.9922 23.6281 13.9922C23.3774 13.9922 23.137 13.9099 22.9598 13.7634C22.7826 13.6169 22.683 13.4181 22.683 13.2109V11.6484H20.3202V13.2109C20.3202 13.4181 20.2206 13.6169 20.0434 13.7634C19.8661 13.9099 19.6257 13.9922 19.3751 13.9922C19.1244 13.9922 18.884 13.9099 18.7068 13.7634C18.5295 13.6169 18.4299 13.4181 18.4299 13.2109V9.10938C18.4299 8.43597 18.7536 7.79015 19.3296 7.31399C19.9056 6.83782 20.6869 6.57031 21.5016 6.57031C22.3162 6.57031 23.0975 6.83782 23.6736 7.31399C24.2496 7.79015 24.5732 8.43597 24.5732 9.10938V13.2109ZM10.869 15.3594V16.5312C10.869 16.6348 10.9187 16.7342 11.0074 16.8075C11.096 16.8807 11.2162 16.9219 11.3415 16.9219C11.4669 16.9219 11.5871 16.8807 11.6757 16.8075C11.7643 16.7342 11.8141 16.6348 11.8141 16.5312V15.3594C11.8141 15.2558 11.7643 15.1564 11.6757 15.0832C11.5871 15.0099 11.4669 14.9688 11.3415 14.9688C11.2162 14.9688 11.096 15.0099 11.0074 15.0832C10.9187 15.1564 10.869 15.2558 10.869 15.3594ZM8.0336 13.4062C7.90827 13.4062 7.78807 13.4474 7.69944 13.5207C7.61082 13.5939 7.56104 13.6933 7.56104 13.7969C7.56104 13.9005 7.61082 13.9998 7.69944 14.0731C7.78807 14.1463 7.90827 14.1875 8.0336 14.1875H9.45128C9.57661 14.1875 9.69681 14.1463 9.78543 14.0731C9.87405 13.9998 9.92384 13.9005 9.92384 13.7969C9.92384 13.6933 9.87405 13.5939 9.78543 13.5207C9.69681 13.4474 9.57661 13.4062 9.45128 13.4062H8.0336ZM19.8476 1.6875V0.515625C19.8476 0.412025 19.7978 0.312668 19.7092 0.239411C19.6206 0.166155 19.5004 0.125 19.3751 0.125C19.2497 0.125 19.1295 0.166155 19.0409 0.239411C18.9523 0.312668 18.9025 0.412025 18.9025 0.515625V1.6875C18.9025 1.7911 18.9523 1.89046 19.0409 1.96371C19.1295 2.03697 19.2497 2.07812 19.3751 2.07812C19.5004 2.07812 19.6206 2.03697 19.7092 1.96371C19.7978 1.89046 19.8476 1.7911 19.8476 1.6875ZM22.683 3.64062C22.8083 3.64062 22.9285 3.59947 23.0171 3.52621C23.1058 3.45296 23.1555 3.3536 23.1555 3.25C23.1555 3.1464 23.1058 3.04704 23.0171 2.97379C22.9285 2.90053 22.8083 2.85938 22.683 2.85938H21.2653C21.14 2.85938 21.0198 2.90053 20.9312 2.97379C20.8425 3.04704 20.7927 3.1464 20.7927 3.25C20.7927 3.3536 20.8425 3.45296 20.9312 3.52621C21.0198 3.59947 21.14 3.64062 21.2653 3.64062H22.683Z" fill="white"/>
<path d="M21.5015 8.13281C21.1881 8.13281 20.8876 8.2357 20.6661 8.41884C20.4445 8.60198 20.3201 8.85037 20.3201 9.10938V10.0859H22.6829V9.10938C22.6829 8.98113 22.6523 8.85414 22.5929 8.73566C22.5336 8.61718 22.4466 8.50952 22.3368 8.41884C22.2271 8.32816 22.0969 8.25623 21.9536 8.20715C21.8102 8.15807 21.6566 8.13281 21.5015 8.13281Z" fill="white"/>
<path d="M9.45128 3.83594H8.0336C7.77261 3.83594 7.56104 4.01083 7.56104 4.22656V7.74219C7.56104 7.95792 7.77261 8.13281 8.0336 8.13281H9.45128C9.71227 8.13281 9.92384 7.95792 9.92384 7.74219V4.22656C9.92384 4.01083 9.71227 3.83594 9.45128 3.83594Z" fill="white"/>
</svg>
