<svg width="25" height="20" viewBox="0 0 25 20" fill="none" xmlns="http://www.w3.org/2000/svg">
<path d="M23.3173 0.000555332H23.2671C23.2522 0.000555332 23.2392 -0.000694165 23.2243 0.000555332H13.3939C13.1094 0.0105513 12.4624 0.309181 12.3787 0.365408L0.543863 8.31721C-0.181288 8.80451 -0.181288 9.59419 0.543863 10.0815L2.0202 11.0736L0.543863 12.0657C-0.181288 12.553 -0.181288 13.3427 0.543863 13.83L9.18245 19.6351C9.54502 19.8788 10.0192 20 10.4952 20C10.9712 20 11.4453 19.8788 11.8079 19.6351L23.6408 11.6821C23.7264 11.6259 24.1931 11.241 24.1931 11.0011V0.621555C24.2013 0.541324 24.1847 0.460816 24.1442 0.385127C24.1038 0.309438 24.0404 0.240216 23.9581 0.181842C23.8758 0.123469 23.7763 0.0772155 23.666 0.04601C23.5557 0.0148044 23.437 -0.000673679 23.3173 0.000555332ZM21.404 1.24505C21.6506 1.24505 21.8871 1.31088 22.0614 1.42804C22.2358 1.5452 22.3337 1.70411 22.3337 1.8698C22.3337 2.0355 22.2358 2.1944 22.0614 2.31157C21.8871 2.42873 21.6506 2.49455 21.404 2.49455C21.1575 2.49455 20.921 2.42873 20.7466 2.31157C20.5723 2.1944 20.4743 2.0355 20.4743 1.8698C20.4743 1.70411 20.5723 1.5452 20.7466 1.42804C20.921 1.31088 21.1575 1.24505 21.404 1.24505ZM22.3281 10.8L10.4989 18.753L1.86029 12.9503L3.33662 11.9582L9.18431 15.8879C9.54688 16.1316 10.021 16.2528 10.497 16.2528C10.973 16.2528 11.4472 16.1316 11.8097 15.8879L22.3337 8.8145V10.79C22.3281 10.7962 22.3244 10.8 22.3281 10.8C22.3263 10.8 22.3263 10.8 22.3281 10.8Z" fill="white"/>
</svg>
