<svg width="23" height="20" viewBox="0 0 23 20" fill="none" xmlns="http://www.w3.org/2000/svg">
<path d="M12.1825 0.208043C11.7819 -0.0693477 11.2181 -0.0693477 10.8175 0.208043L0.432069 7.24617C0.0537333 7.49777 -0.094638 7.92999 0.0611589 8.32349C0.216919 8.71058 0.639763 8.97506 1.11453 8.97506H2.96908V19.0323C2.96908 19.5678 3.46609 20 4.08181 20H8.61432C9.23005 20 9.72705 19.5678 9.72705 19.0323V16.0326C9.72705 15.181 10.5208 14.4907 11.5 14.4907C11.9748 14.4907 12.4199 14.652 12.7611 14.9488C13.0875 15.2326 13.273 15.6197 13.273 16.0326V19.0323C13.273 19.5678 13.77 20 14.3857 20H18.9182C19.5339 20 20.0309 19.5678 20.0309 19.0323V8.97506H21.8855C22.3602 8.97506 22.7831 8.71058 22.9388 8.32349C23.0946 7.92998 22.9463 7.49777 22.5679 7.24617L12.1825 0.208043Z" fill="white"/>
</svg>
