<svg width="167" height="27" viewBox="0 0 167 27" fill="none" xmlns="http://www.w3.org/2000/svg">
    <path
        d="M24.416 24.56C21.92 25.744 20.2 26.336 19.256 26.336C18.664 26.336 17.752 25.704 16.52 24.44C15.304 23.192 13.92 21.664 12.368 19.856C11.296 20.272 10.272 20.48 9.296 20.48C7.6 20.48 6.096 20.08 4.784 19.28C3.488 18.464 2.48 17.336 1.76 15.896C1.04 14.456 0.68 12.824 0.68 11C0.68 9.128 1.224 7.4 2.312 5.816C3.4 4.216 4.752 2.96 6.368 2.048C7.984 1.12 9.528 0.655999 11 0.655999C12.696 0.655999 14.192 1.064 15.488 1.88C16.8 2.696 17.816 3.824 18.536 5.264C19.256 6.704 19.616 8.336 19.616 10.16C19.616 12 19.088 13.704 18.032 15.272C16.976 16.84 15.64 18.096 14.024 19.04C15.528 20.176 16.936 21.2 18.248 22.112C19.576 23.024 20.384 23.48 20.672 23.48H23.912L24.416 24.56ZM3.944 9.848C3.944 11.416 4.192 12.856 4.688 14.168C5.184 15.464 5.936 16.504 6.944 17.288C7.968 18.072 9.224 18.464 10.712 18.464C11.768 18.464 12.728 18.16 13.592 17.552C14.472 16.928 15.16 16.072 15.656 14.984C16.152 13.88 16.4 12.648 16.4 11.288C16.4 9.704 16.152 8.264 15.656 6.968C15.16 5.656 14.408 4.616 13.4 3.848C12.392 3.064 11.136 2.672 9.632 2.672C8.576 2.672 7.608 2.984 6.728 3.608C5.864 4.216 5.184 5.072 4.688 6.176C4.192 7.264 3.944 8.488 3.944 9.848ZM36.7451 20H32.1851V17.504L29.1371 20.048C28.8011 20.176 28.3611 20.24 27.8171 20.24C26.7291 20.24 25.8651 19.912 25.2251 19.256C24.5851 18.584 24.2651 17.68 24.2651 16.544V10.808L22.1291 9.56V8.816L26.2331 6.8H27.1451V15.344C27.1451 16.224 27.2811 16.84 27.5531 17.192C27.8251 17.544 28.3131 17.72 29.0171 17.72C29.5131 17.72 30.0011 17.632 30.4811 17.456C30.9611 17.264 31.5291 16.896 32.1851 16.352V10.808L30.0491 9.56V8.816L34.1531 6.8H35.0651V18.2L37.2251 19.04L36.7451 20ZM47.5743 20.048C46.9343 20.176 46.1663 20.24 45.2703 20.24C44.2143 20.24 43.2623 19.968 42.4143 19.424C41.5823 18.864 40.9263 18.112 40.4463 17.168C39.9823 16.224 39.7503 15.184 39.7503 14.048C39.7503 12.816 40.1263 11.664 40.8783 10.592C41.6303 9.504 42.5663 8.64 43.6863 8C44.8223 7.344 45.9183 7.016 46.9743 7.016C48.4943 7.016 49.6703 7.616 50.5023 8.816C51.3503 10.016 51.7743 11.6 51.7743 13.568H42.8943C42.9903 14.928 43.3583 16.04 43.9983 16.904C44.6543 17.768 45.5423 18.2 46.6623 18.2C47.7023 18.2 49.1823 17.392 51.1023 15.776L51.8223 16.688L47.5743 20.048ZM45.5823 9.032C43.8543 9.032 42.9503 10.216 42.8703 12.584H48.4863C48.3423 11.72 48.1903 11.064 48.0303 10.616C47.8863 10.152 47.6223 9.776 47.2383 9.488C46.8703 9.184 46.3183 9.032 45.5823 9.032ZM63.4762 7.04C64.0042 7.04 64.4682 7.184 64.8682 7.472C65.2682 7.76 65.5802 8.16 65.8042 8.672L64.2202 10.664H63.3082C63.2442 10.264 63.1242 9.984 62.9482 9.824C62.7882 9.648 62.5642 9.56 62.2762 9.56C61.9242 9.56 61.5482 9.656 61.1482 9.848C60.7642 10.024 60.3242 10.368 59.8282 10.88V18.032L63.1882 19.064L62.7082 20.024H54.8122V19.28L56.9482 17.6V10.808L54.8122 9.56V8.816L58.9162 6.8L59.6602 9.752L62.1562 7.208C62.4922 7.08 62.9322 7.016 63.4762 7.016V7.04ZM79.9295 8L73.8575 20L68.8655 26.336L67.9535 25.616C68.8655 24.64 69.5535 23.784 70.0175 23.048C70.4975 22.312 70.8335 21.568 71.0255 20.816C71.2175 20.08 71.3135 19.2 71.3135 18.176L68.2895 10.856L66.0575 9.56V8.816L70.1615 6.8L71.0735 10.424L74.0015 17.576L77.3855 10.544L74.1935 8.216L74.6735 7.256H79.9295V8ZM110.068 24.56C106.74 25.744 104.46 26.336 103.228 26.336C102.7 26.336 101.876 25.76 100.756 24.608C99.6519 23.472 98.3719 22.032 96.9159 20.288C96.2439 20.416 95.6359 20.48 95.0919 20.48C93.1719 20.48 91.4759 20.08 90.0039 19.28C88.5479 18.464 87.4119 17.336 86.5959 15.896C85.7959 14.456 85.3959 12.824 85.3959 11C85.3959 9.128 85.9959 7.4 87.1959 5.816C88.4119 4.216 89.9159 2.96 91.7079 2.048C93.4999 1.12 95.1959 0.655999 96.7959 0.655999C98.7159 0.655999 100.412 1.064 101.884 1.88C103.356 2.696 104.492 3.824 105.292 5.264C106.092 6.704 106.492 8.336 106.492 10.16C106.492 12.016 105.9 13.728 104.716 15.296C103.532 16.864 102.044 18.12 100.252 19.064C101.532 19.96 102.724 20.76 103.828 21.464C104.948 22.168 105.628 22.52 105.868 22.52H109.108L110.068 24.56ZM91.0359 9.848C91.0359 11.208 91.2359 12.448 91.6359 13.568C92.0359 14.688 92.6439 15.584 93.4599 16.256C94.2919 16.928 95.2999 17.264 96.4839 17.264C97.2839 17.264 98.0119 17.008 98.6679 16.496C99.3399 15.968 99.8679 15.248 100.252 14.336C100.652 13.424 100.852 12.408 100.852 11.288C100.852 9.912 100.652 8.664 100.252 7.544C99.8519 6.424 99.2439 5.536 98.4279 4.88C97.6119 4.208 96.6039 3.872 95.4039 3.872C94.6039 3.872 93.8679 4.136 93.1959 4.664C92.5399 5.176 92.0119 5.888 91.6119 6.8C91.2279 7.712 91.0359 8.728 91.0359 9.848ZM124.12 20H118.12V18.2L115.792 20.072C115.36 20.2 114.84 20.264 114.232 20.264C112.92 20.264 111.88 19.936 111.112 19.28C110.344 18.608 109.96 17.704 109.96 16.568V11.792L107.824 10.568V8.864L112.888 6.728H114.76V14.408C114.76 15.096 114.856 15.584 115.048 15.872C115.256 16.16 115.608 16.304 116.104 16.304C116.792 16.304 117.464 16.136 118.12 15.8V11.792L115.984 10.568V8.864L121.048 6.728H122.92V17.408L125.08 18.08L124.12 20ZM134.572 6.728C136.348 6.728 137.724 7.392 138.7 8.72C139.676 10.048 140.14 11.936 140.092 14.384H131.62C131.812 15.12 132.132 15.704 132.58 16.136C133.028 16.552 133.596 16.76 134.284 16.76C135.42 16.76 137.116 16.344 139.372 15.512L140.092 17.144L136.804 19.784C135.716 20.088 134.412 20.24 132.892 20.24C131.644 20.24 130.524 19.968 129.532 19.424C128.556 18.864 127.788 18.104 127.228 17.144C126.684 16.168 126.412 15.088 126.412 13.904C126.412 12.624 126.836 11.432 127.684 10.328C128.532 9.224 129.596 8.352 130.876 7.712C132.156 7.056 133.396 6.728 134.596 6.728H134.572ZM133.3 9.944C132.708 9.944 132.26 10.152 131.956 10.568C131.652 10.968 131.484 11.592 131.452 12.44H135.412C135.332 11.592 135.124 10.968 134.788 10.568C134.452 10.152 133.948 9.944 133.276 9.944H133.3ZM148.681 16.688C148.681 16.464 148.497 16.224 148.129 15.968C147.777 15.696 147.209 15.328 146.425 14.864C145.161 14.128 144.177 13.464 143.473 12.872C142.769 12.28 142.417 11.624 142.417 10.904C142.417 10.328 142.713 9.712 143.305 9.056C143.897 8.4 144.617 7.848 145.465 7.4C146.329 6.952 147.121 6.728 147.841 6.728C148.721 6.728 149.745 6.824 150.913 7.016C152.081 7.192 152.929 7.392 153.457 7.616V11.792H151.585C151.201 11.12 150.729 10.592 150.169 10.208C149.609 9.808 149.041 9.608 148.465 9.608C148.241 9.608 148.065 9.672 147.937 9.8C147.825 9.928 147.769 10.088 147.769 10.28C147.769 10.536 147.953 10.808 148.321 11.096C148.705 11.368 149.305 11.744 150.121 12.224C151.353 12.928 152.313 13.568 153.001 14.144C153.689 14.72 154.033 15.36 154.033 16.064C154.033 16.656 153.729 17.28 153.121 17.936C152.513 18.576 151.769 19.12 150.889 19.568C150.009 20.016 149.201 20.24 148.465 20.24C147.537 20.24 146.433 20.152 145.153 19.976C143.873 19.784 142.953 19.576 142.393 19.352V14.936H144.265C144.713 15.688 145.265 16.28 145.921 16.712C146.577 17.144 147.225 17.36 147.865 17.36C148.105 17.36 148.297 17.296 148.441 17.168C148.601 17.04 148.681 16.88 148.681 16.688ZM164.415 20.048C163.759 20.176 162.991 20.24 162.111 20.24C160.447 20.24 159.231 19.896 158.463 19.208C157.695 18.504 157.311 17.424 157.311 15.968V9.632H154.719V8.168L160.239 2.384H162.111V7.688H166.431V9.632H162.111V15.536C162.111 16.512 162.735 17 163.983 17C164.303 17 164.615 16.968 164.919 16.904C165.239 16.824 165.639 16.688 166.119 16.496L166.839 18.128L164.415 20.048Z"
        fill="#FFFFFF" />
</svg>